<svg width="32" height="32" viewBox="0 0 32 32" fill="none" xmlns="http://www.w3.org/2000/svg">
<g clip-path="url(#clip0_667_12)">
<path d="M20.5714 25.0532C20.5714 27.569 22.6183 29.6084 25.1431 29.6084C27.668 29.6084 29.7148 27.569 29.7148 25.0532C29.7148 22.5375 27.668 20.498 25.1431 20.498C22.6183 20.498 20.5714 22.5375 20.5714 25.0532Z" fill="white"/>
<path d="M0.000236511 7.97146C0.000236511 12.374 3.58212 15.9429 8.00061 15.9429C12.4191 15.9429 16.001 12.374 16.001 7.97146C16.001 3.56894 12.4191 0 8.00061 0C3.58212 0 0.000236511 3.56894 0.000236511 7.97146Z" fill="white"/>
<path d="M19.6564 7.74714C19.6564 11.1434 22.4196 13.8966 25.8282 13.8966C29.2368 13.8966 32 11.1434 32 7.74714C32 4.35087 29.2368 1.59766 25.8282 1.59766C22.4196 1.59766 19.6564 4.35087 19.6564 7.74714Z" fill="white"/>
<path d="M2.28337 25.8507C2.28337 29.247 5.04658 32.0002 8.45516 32.0002C11.8637 32.0002 14.627 29.247 14.627 25.8507C14.627 22.4545 11.8637 19.7012 8.45516 19.7012C5.04658 19.7012 2.28337 22.4545 2.28337 25.8507Z" fill="white"/>
</g>
<defs>
<clipPath id="clip0_667_12">
<rect width="32" height="32" fill="white"/>
</clipPath>
</defs>
</svg>
